<svg t="1761284159698" class="icon" viewBox="0 0 1024 1024" version="1.1" xmlns="http://www.w3.org/2000/svg" p-id="21601" width="200" height="200"><path d="M383.15 199.44c2.71-11.76-11.88-19.5-20.06-10.62-38.79 42.11-94.65 119.28-58.43 184.88 52.87 95.77 126.26 12 126.26 12s-81.58-40-47.77-186.26zM257 840.25c-11.45-3.81-20.53 10-12.46 19 38.27 42.59 109.83 105.47 178.55 75.59 100.33-43.62 23.83-124.58 23.83-124.58S399.43 887.69 257 840.25z" fill="#66AD45" p-id="21602"></path><path d="M428.87 91.74c-2.72-11.74 11.88-19.49 20.06-10.61 38.79 42.1 94.65 119.27 58.43 184.87-52.88 95.78-126.27 12-126.27 12s81.59-40 47.78-186.26zM230.82 378.41c-2.25-9.48-15.59-9.85-18.32-0.49-13 44.38-25.75 120.25 24 154.75 72.6 50.35 95.68-36.59 95.68-36.59s-73.4 0.31-101.36-117.67zM181.62 595.83c-5.49-8.06-18.07-3.64-17.29 6.08 3.74 46.09 18.93 121.51 77.7 136 85.8 21.09 76.29-68.36 76.29-68.36s-68.43 26.45-136.7-73.72zM666.75 199.44c-2.71-11.76 11.88-19.5 20.06-10.62 38.79 42.11 94.65 119.28 58.43 184.88-52.87 95.77-126.26 12-126.26 12s81.58-40 47.77-186.26zM792.9 840.25c11.45-3.81 20.53 10 12.46 19-38.27 42.59-109.83 105.47-178.55 75.59C526.48 891.19 603 810.23 603 810.23s47.47 77.46 189.9 30.02z" fill="#66AD45" p-id="21603"></path><path d="M621 91.74c2.75-11.74-11.85-19.49-20-10.61-38.82 42.1-94.68 119.27-58.46 184.87 52.88 95.78 126.27 12 126.27 12S587.22 238 621 91.74zM819.08 378.41c2.25-9.48 15.59-9.85 18.32-0.49 13 44.38 25.75 120.25-24 154.75-72.6 50.35-95.68-36.59-95.68-36.59s73.4 0.31 101.36-117.67zM868.28 595.83c5.49-8.06 18.07-3.64 17.29 6.08-3.74 46.09-18.93 121.51-77.7 136-85.8 21.09-76.29-68.36-76.29-68.36S800 696 868.28 595.83z" fill="#66AD45" p-id="21604"></path><path d="M834.53 595.75c0-199.43-106.38-361.1-305.81-361.1s-309.11 161.67-309.11 361.1 109.68 361.1 309.11 361.1 305.81-161.67 305.81-361.1z" fill="#E03B62" p-id="21605"></path><path d="M793.93 595.75c0-173.1-92.33-313.42-265.43-313.42S260.21 422.65 260.21 595.75s95.2 313.41 268.29 313.41 265.43-140.32 265.43-313.41z" fill="#F2F2F2" p-id="21606"></path><path d="M502.16 407.89c4.79 4.95 11 19.38 6 24.17s-19.16-1.88-23.95-6.83a12.47 12.47 0 0 1 17.92-17.34zM463.2 642.71c3.6-5.88 16-15.47 21.9-11.88s3 19-0.63 24.91a12.47 12.47 0 0 1-21.27-13zM641.8 583c-4.78-5-11-19.38-6-24.16s19.17 1.87 24 6.82a12.47 12.47 0 0 1-18 17.34zM368 430.62c-4.79-4.95-11-19.38-6-24.17s19.16 1.88 23.95 6.83A12.47 12.47 0 0 1 368 430.62zM730.5 590.18c-4.79-4.95-11-19.38-6-24.17s19.16 1.88 23.95 6.83a12.47 12.47 0 0 1-17.92 17.34zM330.36 715.78c-4.79-4.95-11-19.38-6-24.17s19.17 1.88 24 6.83a12.47 12.47 0 0 1-17.93 17.34zM533.87 480.38c6.68-1.69 22.27 0.12 24 6.79s-11.2 15.69-17.87 17.38a12.47 12.47 0 1 1-6.12-24.17zM467.56 338.56c6.67-1.69 22.27 0.12 24 6.8s-11.17 15.69-17.84 17.38a12.47 12.47 0 1 1-6.12-24.18zM450.79 821.9c6.68-1.69 22.28 0.12 24 6.79s-11.17 15.69-17.85 17.38a12.47 12.47 0 1 1-6.12-24.17zM686.78 654.53c-4.79-4.95-11-19.38-6-24.16s19.17 1.87 24 6.82a12.47 12.47 0 0 1-17.93 17.34zM484.42 565.27c4.95-4.79 19.38-11 24.17-6s-1.88 19.17-6.83 24a12.47 12.47 0 0 1-17.34-17.93zM573.52 748.74c5-4.79 19.38-11 24.16-6s-1.87 19.17-6.82 24a12.47 12.47 0 0 1-17.34-17.93zM637.58 791.28c4.95-4.79 19.38-11 24.17-6s-1.87 19.16-6.82 24a12.47 12.47 0 1 1-17.35-17.92zM678.43 407.66c-4.95 4.79-19.38 11-24.17 6s1.87-19.16 6.82-23.95a12.47 12.47 0 1 1 17.35 17.92zM454.35 487.58c5.74-3.81 21-7.28 24.86-1.54s-5.33 18.51-11.07 22.32a12.47 12.47 0 0 1-13.79-20.78zM668.37 503.49c-2-6.57-1.07-22.24 5.51-24.29s16.26 10.31 18.31 16.89a12.47 12.47 0 1 1-23.82 7.4zM409.66 768.76c3-6.2 14.42-17 20.62-14s4.83 18.64 1.82 24.84a12.47 12.47 0 1 1-22.44-10.87zM335.06 537.33c5.62-4 20.82-7.91 24.81-2.29s-4.77 18.66-10.39 22.64a12.47 12.47 0 0 1-14.42-20.35zM564.78 566.34c0.8-6.84 8-20.78 14.88-20s10.69 16 9.9 22.86a12.47 12.47 0 1 1-24.78-2.88zM387.71 674.23c3.7-5.81 16.28-15.2 22.09-11.51s2.66 19.07-1 24.89a12.47 12.47 0 1 1-21.05-13.38zM620.94 687.63c-2.87-6.26-3.92-21.93 2.34-24.8s17.45 8.13 20.33 14.39a12.47 12.47 0 0 1-22.67 10.41zM669.69 749.89c-2.88-6.26-3.92-21.93 2.34-24.8s17.45 8.14 20.32 14.4a12.47 12.47 0 1 1-22.66 10.4zM390.08 478.57c3.65-5.85 16.15-15.34 22-11.69s2.81 19.05-0.84 24.89a12.47 12.47 0 1 1-21.16-13.2zM609.32 492.16c-3.94-5.65-7.73-20.89-2.07-24.82s18.61 4.93 22.55 10.59a12.47 12.47 0 0 1-20.48 14.23zM547.41 644.87c0.11-6.88 5.93-21.46 12.82-21.35s12.23 14.88 12.11 21.76a12.47 12.47 0 1 1-24.93-0.41zM586.87 424c0.11-6.89 5.93-21.47 12.82-21.35s12.23 14.87 12.12 21.76a12.47 12.47 0 0 1-24.94-0.41zM362.73 602.29c2.41-6.45 12.77-18.24 19.23-15.83s6.54 18.11 4.13 24.56a12.47 12.47 0 1 1-23.36-8.73zM425.14 574.85c0.12-6.89 5.94-21.47 12.83-21.36s12.22 14.88 12.11 21.77a12.47 12.47 0 0 1-24.94-0.41zM490.68 720.43c0.11-6.89 5.93-21.47 12.82-21.35s12.23 14.87 12.11 21.76a12.47 12.47 0 1 1-24.93-0.41zM521 819.43c0.11-6.89 5.93-21.47 12.82-21.36S546 813 545.89 819.84a12.47 12.47 0 1 1-24.93-0.41zM589.65 351.23c-0.12 6.88-5.94 21.47-12.83 21.35s-12.22-14.88-12.11-21.76a12.47 12.47 0 1 1 24.94 0.41z" fill="#333333" p-id="21607"></path></svg>
